<?xml version="1.0" encoding="UTF-8" standalone="no"?>
<!-- Created with Inkscape (http://www.inkscape.org/) -->

<svg
   xmlns:dc="http://purl.org/dc/elements/1.1/"
   xmlns:cc="http://creativecommons.org/ns#"
   xmlns:rdf="http://www.w3.org/1999/02/22-rdf-syntax-ns#"
   xmlns:svg="http://www.w3.org/2000/svg"
   xmlns="http://www.w3.org/2000/svg"
   xmlns:sodipodi="http://sodipodi.sourceforge.net/DTD/sodipodi-0.dtd"
   xmlns:inkscape="http://www.inkscape.org/namespaces/inkscape"
   version="1.1"
   id="svg10"
   width="179.2"
   height="179.2"
   viewBox="0 0 179.2 179.2"
   sodipodi:docname="POLARBOY.svg"
   inkscape:version="0.92.4 (5da689c313, 2019-01-14)">
  <metadata
     id="metadata16">
    <rdf:RDF>
      <cc:Work
         rdf:about="">
        <dc:format>image/svg+xml</dc:format>
        <dc:type
           rdf:resource="http://purl.org/dc/dcmitype/StillImage" />
        <dc:title />
      </cc:Work>
    </rdf:RDF>
  </metadata>
  <defs
     id="defs14" />
  <sodipodi:namedview
     pagecolor="#ffffff"
     bordercolor="#666666"
     borderopacity="1"
     objecttolerance="10"
     gridtolerance="10"
     guidetolerance="10"
     inkscape:pageopacity="0"
     inkscape:pageshadow="2"
     inkscape:window-width="2560"
     inkscape:window-height="1495"
     id="namedview12"
     showgrid="false"
     inkscape:zoom="11.313708"
     inkscape:cx="93.811454"
     inkscape:cy="95.282553"
     inkscape:window-x="-13"
     inkscape:window-y="-13"
     inkscape:window-maximized="1"
     inkscape:current-layer="svg10"
     showguides="false" />
  <path
     style="display:inline;fill:#000000;stroke-width:0.31999999"
     d="M 60.796875 52.138672 A 17.612705 17.612705 0 0 0 43.185547 69.751953 A 17.612705 17.612705 0 0 0 60.796875 87.365234 A 17.612705 17.612705 0 0 0 78.410156 69.751953 A 17.612705 17.612705 0 0 0 60.796875 52.138672 z M 17.849609 52.480469 L 17.849609 87.039062 L 23.929688 87.039062 L 23.929688 72.320312 L 24.804688 72.310547 C 27.866982 72.273671 31.352057 71.658794 32.775391 70.9375 C 34.709144 69.957593 36.814377 67.736071 37.404297 66.052734 C 38.080259 64.123882 37.952411 59.976855 37.164062 58.240234 C 35.125506 53.749575 31.521849 52.486328 25.828125 52.486328 L 17.849609 52.480469 z M 85.050781 52.480469 L 85.050781 87.039062 L 100.73047 87.039062 L 100.73047 80.640625 L 91.130859 80.640625 L 91.130859 52.480469 L 85.050781 52.480469 z M 116.50781 52.480469 L 103.29883 87.039062 L 109.84961 87.039062 L 112.73047 79.679688 L 126.90039 79.679688 L 129.62695 87.039062 L 136.25781 87.039062 L 123.03906 52.480469 L 116.50781 52.480469 z M 142.00977 52.480469 L 142.00977 87.041016 L 148.41016 87.041016 L 148.41016 72.34375 L 156.89062 87.025391 L 163.78711 87.039062 L 154.40234 71.896484 C 154.40234 71.896484 156.6378 71.177587 157.3418 70.849609 C 159.21651 69.976224 161.02482 67.889295 161.64062 66.082031 C 162.30125 64.143151 162.32133 61.103093 161.6875 58.96875 C 161.08119 56.927105 160.17746 55.511433 157.50391 53.845703 C 155.86887 52.970521 153.62214 52.493481 149.17188 52.488281 L 142.00977 52.480469 z M 60.796875 58.199219 A 11.552427 11.552427 0 0 1 72.349609 69.751953 A 11.552427 11.552427 0 0 1 60.796875 81.304688 A 11.552427 11.552427 0 0 1 49.244141 69.751953 A 11.552427 11.552427 0 0 1 60.796875 58.199219 z M 150.66016 58.792969 C 150.66016 58.792969 154.22154 58.660253 155.37695 60.173828 C 156.01961 61.015745 156.08984 61.446114 156.08984 62.425781 C 156.08984 64.13229 155.27876 64.916176 153.96094 65.466797 C 153.3518 65.721312 151.39453 65.919922 151.39453 65.919922 L 148.41016 65.919922 L 148.41016 58.816406 L 150.66016 58.792969 z M 23.929688 58.880859 L 26.410156 58.880859 C 28.708253 58.880859 30.237067 59.136462 31.142578 60.21875 C 32.045339 61.297751 31.899427 63.833311 30.949219 64.552734 C 29.883658 65.359492 29.176022 65.870644 26.410156 65.871094 L 23.929688 65.871094 L 23.929688 58.880859 z M 119.66406 61.226562 L 124.39453 73.279297 L 115.12109 73.279297 L 119.66406 61.226562 z M 115.75 93.462891 A 17.612705 17.612705 0 0 0 98.136719 111.07422 A 17.612705 17.612705 0 0 0 115.75 128.6875 A 17.612705 17.612705 0 0 0 133.36328 111.07422 A 17.612705 17.612705 0 0 0 115.75 93.462891 z M 157.14062 93.759766 L 150.60352 106.75781 L 143.75 93.867188 L 137.32812 93.919922 L 147.4375 112.94727 L 147.44922 128.32031 L 153.84961 128.32031 L 153.84961 112.94531 L 163.7832 93.759766 L 157.14062 93.759766 z M 76.810547 93.855469 L 71.609375 93.863281 L 71.609375 128.22461 L 79.96875 128.20898 C 84.994938 128.2002 87.086521 127.26166 89.316406 125.29883 C 91.353878 123.50538 92.248002 121.58232 92.658203 119.34375 C 93.06238 117.13805 92.940156 114.4584 91.660156 112.69141 C 90.788243 111.48777 89.253613 109.60571 87.189453 109.03125 C 87.189453 109.03125 87.580096 108.70948 88.283203 107.96094 C 90.015223 106.117 90.243589 104.83054 90.230469 102.55469 C 90.208299 98.711815 88.021577 95.907721 84.103516 94.697266 C 82.542515 94.215004 80.690848 93.849869 76.810547 93.855469 z M 115.74805 99.521484 A 11.552427 11.552427 0 0 1 127.30078 111.07422 A 11.552427 11.552427 0 0 1 115.74805 122.62695 A 11.552427 11.552427 0 0 1 104.19727 111.07422 A 11.552427 11.552427 0 0 1 115.74805 99.521484 z M 77.689453 100.16016 L 79.625 100.16016 C 82.848191 100.16016 84.078708 101.84652 84.089844 103.75781 C 84.09971 105.45123 83.359452 106.36794 81.958984 106.90039 C 81.524428 107.06561 80.386231 107.19922 79.429688 107.19922 L 77.689453 107.19922 L 77.689453 103.67969 L 77.689453 100.16016 z M 77.689453 112.89453 L 80.330078 113.00781 C 84.786961 113.19943 86.840181 114.90243 86.554688 118.16992 C 86.395826 119.98809 85.475395 121.13225 83.792969 121.59961 L 83.792969 121.59766 C 83.1639 121.77241 81.533922 121.91701 80.169922 121.91797 L 77.689453 121.91992 L 77.689453 117.40625 L 77.689453 112.89453 z "
     id="path20"
     inkscape:label="POLARBOY" />
</svg>
