<?xml version="1.0" encoding="UTF-8" standalone="no"?>
<!-- Created with Inkscape (http://www.inkscape.org/) -->

<svg
   xmlns:dc="http://purl.org/dc/elements/1.1/"
   xmlns:cc="http://creativecommons.org/ns#"
   xmlns:rdf="http://www.w3.org/1999/02/22-rdf-syntax-ns#"
   xmlns:svg="http://www.w3.org/2000/svg"
   xmlns="http://www.w3.org/2000/svg"
   xmlns:sodipodi="http://sodipodi.sourceforge.net/DTD/sodipodi-0.dtd"
   xmlns:inkscape="http://www.inkscape.org/namespaces/inkscape"
   version="1.1"
   id="svg10"
   width="179.2"
   height="179.2"
   viewBox="0 0 179.2 179.2"
   sodipodi:docname="POLARBOY.svg"
   inkscape:version="0.92.4 (5da689c313, 2019-01-14)">
  <metadata
     id="metadata16">
    <rdf:RDF>
      <cc:Work
         rdf:about="">
        <dc:format>image/svg+xml</dc:format>
        <dc:type
           rdf:resource="http://purl.org/dc/dcmitype/StillImage" />
        <dc:title />
      </cc:Work>
    </rdf:RDF>
  </metadata>
  <defs
     id="defs14" />
  <sodipodi:namedview
     pagecolor="#ffffff"
     bordercolor="#666666"
     borderopacity="1"
     objecttolerance="10"
     gridtolerance="10"
     guidetolerance="10"
     inkscape:pageopacity="0"
     inkscape:pageshadow="2"
     inkscape:window-width="2560"
     inkscape:window-height="1495"
     id="namedview12"
     showgrid="false"
     inkscape:zoom="7.9999996"
     inkscape:cx="83.208683"
     inkscape:cy="92.564981"
     inkscape:window-x="-13"
     inkscape:window-y="-13"
     inkscape:window-maximized="1"
     inkscape:current-layer="svg10"
     showguides="false" />
  <path
     style="display:inline;fill:#000000;stroke-width:0.31999999"
     d="m 71.61,93.862975 5.2,-0.0075 c 3.880301,-0.0056 5.732381,0.360096 7.293382,0.842358 3.918061,1.210455 6.104304,4.014304 6.126474,7.857177 0.01312,2.27585 -0.213735,3.56105 -1.945755,5.40499 -0.703107,0.74854 -1.094847,1.07039 -1.094847,1.07039 2.06416,0.57446 3.598945,2.45645 4.470858,3.66009 1.28,1.76699 1.401342,4.44725 0.997165,6.65295 -0.410201,2.23857 -1.302954,4.16111 -3.340426,5.95456 -2.229885,1.96283 -4.32241,2.90248 -9.348598,2.91126 L 71.61,128.22385 Z M 83.793763,121.5987 c 1.682426,-0.46736 2.603037,-1.61009 2.761898,-3.42826 0.285494,-3.26749 -1.768778,-4.97099 -6.225661,-5.16261 l -2.64,-0.1135 v 4.51283 4.51284 l 2.48,-0.002 c 1.364,-9.6e-4 2.994694,-0.14476 3.623763,-0.31951 z M 81.958438,106.8996 C 83.358906,106.36715 84.099866,105.45204 84.09,103.75862 84.078864,101.84733 82.849082,100.16 79.625891,100.16 H 77.69 v 3.52 3.52 h 1.739168 c 0.956544,0 2.094714,-0.13518 2.52927,-0.3004 z M 137.32766,93.92 l 6.42167,-0.05209 6.85444,12.89029 6.53766,-12.9982 h 6.64125 L 153.85,112.94509 V 128.32 h -6.4 l -0.0117,-15.37357 z M 17.85,52.48 l 7.977291,0.0055 c 5.693724,0 9.299071,1.263795 11.337627,5.754454 0.788349,1.736621 0.915514,5.884224 0.239552,7.813076 -0.58992,1.683337 -2.695168,3.905014 -4.628921,4.884921 -1.423334,0.721294 -4.908574,1.336491 -7.970869,1.373367 L 23.93,72.32 v 14.72 h -6.08 z m 13.098999,12.073176 c 0.950208,-0.719423 1.095714,-3.254902 0.192953,-4.333903 -0.905511,-1.082288 -2.433856,-1.338777 -4.731953,-1.338777 L 23.93,58.88 v 6.991294 l 2.480812,-4.04e-4 c 2.765866,-4.5e-4 3.472626,-0.510956 4.538187,-1.317714 z M 85.05,52.48 h 6.08 v 28.16 h 9.6 v 6.4 H 85.05 Z m 31.45829,0 h 6.53073 l 13.21957,34.56 h -6.63116 l -2.72745,-7.36 -14.16998,6.24e-4 -2.88,7.358752 -6.55066,6.24e-4 z m 3.15654,8.746215 L 115.12141,73.28 h 9.27249 z M 142.01,52.48 l 7.16165,0.0083 c 4.45027,0.0052 6.69649,0.481683 8.33153,1.356865 2.67355,1.66573 3.57735,3.082405 4.18366,5.12405 0.63383,2.134343 0.61382,5.173344 -0.0468,7.112224 -0.6158,1.807264 -2.42273,3.894858 -4.29744,4.768243 -0.704,0.327978 -2.94023,1.047006 -2.94023,1.047006 L 163.78644,87.04 156.89,87.0248 148.41,72.343865 v 14.696233 h -6.4 z m 11.95097,12.987091 c 1.31782,-0.550621 2.12903,-1.334496 2.12903,-3.041005 0,-0.979667 -0.0699,-1.410731 -0.71256,-2.252648 -1.15541,-1.513575 -4.71722,-1.380541 -4.71722,-1.380541 L 148.41,58.81632 V 65.92 h 2.9848 c 0,0 1.95703,-0.198394 2.56617,-0.452909 z"
     id="path20"
     inkscape:connector-curvature="0"
     sodipodi:nodetypes="csccscsacscccsccccccccsscccsccccccccccccsccccccsccccssccccccccccccccccccsccssccsccccsccsssccccsss" />
  <path
     style="fill:#000000;fill-opacity:1;stroke-width:1.01918006"
     d="M 78.41,69.752113 A 17.612705,17.612705 0 0 1 60.797295,87.364819 17.612705,17.612705 0 0 1 43.184589,69.752113 17.612705,17.612705 0 0 1 60.797295,52.139408 17.612705,17.612705 0 0 1 78.41,69.752113 Z"
     id="path27" />
  <path
     style="fill:#ffffff;fill-opacity:1;stroke-width:1.05022061"
     d="M 72.348722,69.751511 A 11.552427,11.552427 0 0 1 60.796295,81.303938 11.552427,11.552427 0 0 1 49.243868,69.751511 11.552427,11.552427 0 0 1 60.796295,58.199083 11.552427,11.552427 0 0 1 72.348722,69.751511 Z"
     id="path38" />
  <path
     style="fill:#000000;fill-opacity:1;stroke-width:1.01918006"
     d="M 133.36271,111.075 A 17.612705,17.612705 0 0 1 115.75,128.6877 17.612705,17.612705 0 0 1 98.137295,111.075 17.612705,17.612705 0 0 1 115.75,93.462292 17.612705,17.612705 0 0 1 133.36271,111.075 Z"
     id="path27-7" />
  <path
     style="fill:#ffffff;fill-opacity:1;stroke-width:1.05022061"
     d="M 127.30143,111.0744 A 11.552427,11.552427 0 0 1 115.749,122.62683 11.552427,11.552427 0 0 1 104.19657,111.0744 11.552427,11.552427 0 0 1 115.749,99.521975 11.552427,11.552427 0 0 1 127.30143,111.0744 Z"
     id="path38-6" />
</svg>
