<?xml version="1.0" encoding="UTF-8" standalone="no"?>
<!-- Created with Inkscape (http://www.inkscape.org/) -->

<svg
   xmlns:dc="http://purl.org/dc/elements/1.1/"
   xmlns:cc="http://creativecommons.org/ns#"
   xmlns:rdf="http://www.w3.org/1999/02/22-rdf-syntax-ns#"
   xmlns:svg="http://www.w3.org/2000/svg"
   xmlns="http://www.w3.org/2000/svg"
   xmlns:sodipodi="http://sodipodi.sourceforge.net/DTD/sodipodi-0.dtd"
   xmlns:inkscape="http://www.inkscape.org/namespaces/inkscape"
   version="1.1"
   id="svg10"
   width="179.2"
   height="179.2"
   viewBox="0 0 179.2 179.2"
   sodipodi:docname="POLARBOY.svg"
   inkscape:version="0.92.4 (5da689c313, 2019-01-14)">
  <metadata
     id="metadata16">
    <rdf:RDF>
      <cc:Work
         rdf:about="">
        <dc:format>image/svg+xml</dc:format>
        <dc:type
           rdf:resource="http://purl.org/dc/dcmitype/StillImage" />
        <dc:title />
      </cc:Work>
    </rdf:RDF>
  </metadata>
  <defs
     id="defs14" />
  <sodipodi:namedview
     pagecolor="#ffffff"
     bordercolor="#666666"
     borderopacity="1"
     objecttolerance="10"
     gridtolerance="10"
     guidetolerance="10"
     inkscape:pageopacity="0"
     inkscape:pageshadow="2"
     inkscape:window-width="2560"
     inkscape:window-height="1495"
     id="namedview12"
     showgrid="false"
     inkscape:zoom="2.828427"
     inkscape:cx="1.8242436"
     inkscape:cy="80.90514"
     inkscape:window-x="-13"
     inkscape:window-y="-13"
     inkscape:window-maximized="1"
     inkscape:current-layer="svg10"
     showguides="true" />
  <path
     id="POLARBOY"
     style="display:inline;fill:#000000;stroke-width:0.31999999"
     d="m 77.689453,112.89453 2.640625,0.11328 c 4.456883,0.19162 6.510103,1.89462 6.22461,5.16211 -0.158862,1.81817 -1.079293,2.96233 -2.761719,3.42969 v -0.002 c -0.629069,0.17475 -2.259047,0.31935 -3.623047,0.32031 l -2.480469,0.002 v -4.51367 z m 0,-12.73437 H 79.625 c 3.223191,0 4.453708,1.68636 4.464844,3.59765 0.0099,1.69342 -0.730392,2.61013 -2.13086,3.14258 -0.434556,0.16522 -1.572753,0.29883 -2.529296,0.29883 h -1.740235 v -3.51953 z M 76.810547,93.799997 H 71.3 V 128.2 h 8.66875 c 5.026188,-0.009 7.117771,-0.93833 9.347656,-2.90116 2.037472,-1.79345 2.931596,-3.71651 3.341797,-5.95508 0.404177,-2.2057 0.109931,-4.70295 -0.998047,-6.65234 -0.951682,-1.6744 -2.406543,-3.0857 -4.470703,-3.66016 0,0 0.390643,-0.32177 1.09375,-1.07031 1.73202,-1.84394 1.960386,-3.1304 1.947266,-5.40625 -0.02217,-3.84287 -2.271392,-6.428214 -6.126953,-7.857419 -3.500712,-1.047043 -5.893412,-0.897284 -7.292969,-0.897284 z m 79.709453,0 L 149.76,106.8 143,93.799997 h -6.4 L 146.56,112.95 v 15.25 h 6.4 v -15.25 l 9.98,-19.150003 z m -36.85594,-32.573435 4.73047,12.052735 h -9.27344 z M 23.929688,58.879997 h 2.480468 c 2.298097,0 3.824333,0.25771 4.729844,1.339998 0.902761,1.079001 0.791458,3.516827 -0.19,4.33 -1.029165,0.8527 -1.773978,1.319552 -4.539844,1.320002 h -2.480468 z m 126.730472,-0.08 c 0,0 3.56443,-0.143575 4.71984,1.37 0.64266,0.841917 0.72,1.280333 0.72,2.26 0,1.706509 -0.82218,2.489379 -2.14,3.04 -0.60914,0.254515 -2.56547,0.449925 -2.56547,0.449925 h -2.98437 v -7.119925 z m -89.86016,-0.3 c 6.380468,-1.7e-4 11.20017,4.819531 11.2,11.2 1.7e-4,6.380469 -4.819532,11.20017 -11.2,11.2 -6.380469,1.7e-4 -11.200169,-4.819531 -11.2,-11.2 -1.69e-4,-6.380469 4.819531,-11.20017 11.2,-11.2 z m 81.20977,-6.019528 v 34.559528 h 6.40039 V 72.34375 L 156.2,87.039997 h 6.6 l -8.2,-15.14 c 0,0 1.89294,-0.560949 2.74,-1.05 2.35127,-1.357506 3.68421,-2.962734 4.3,-4.77 0.66064,-1.938878 0.83905,-4.875144 0.05,-7.11 -0.7342,-2.079505 -1.47668,-3.519869 -4.19,-5.12 -1.59744,-0.942062 -4.56057,-1.37 -7.9,-1.37 z m -25.50196,0 L 103.3,87.039997 h 6.54961 l 2.88086,-7.360309 h 14.16992 l 2.72961,7.360309 h 6.63 L 123.03906,52.480469 Z m -31.74781,0 v 34.559528 h 15.97047 v -6.4 H 91.16 V 52.480469 Z m -67.23,-4.72e-4 v 34.56 h 6.399688 V 72.320312 L 24.8,72.319997 c 3.062294,-0.03688 5.585278,-0.127737 7.96,-1.4 1.976409,-1.058866 3.836455,-2.776748 4.64,-4.87 0.933318,-2.431314 0.568349,-6.073177 -0.22,-7.809798 -2.038556,-4.490624 -5.636276,-5.760202 -11.33,-5.760202 z m 43.27,-0.38 c -9.726917,7.6e-4 -17.600318,7.873084 -17.6,17.6 -3.18e-4,9.726916 7.873083,17.59924 17.6,17.6 9.727677,3.18e-4 17.600318,-7.872322 17.6,-17.6 3.18e-4,-9.727678 -7.872323,-17.600318 -17.6,-17.6 z m 54.41551,41.22222 c -9.72692,7.6e-4 -17.60031,7.873063 -17.599992,17.599983 -3.18e-4,9.72692 7.873072,17.59924 17.599992,17.6 9.72768,3.2e-4 17.60032,-7.87232 17.6,-17.6 3.2e-4,-9.72768 -7.87232,-17.600301 -17.6,-17.599983 z m 0,6.399988 c 6.38047,-1.7e-4 11.20017,4.819525 11.2,11.199995 1.7e-4,6.38047 -4.81953,11.20017 -11.2,11.2 -6.38047,1.7e-4 -11.20017,-4.81953 -11.2,-11.2 -1.7e-4,-6.38047 4.81953,-11.200165 11.2,-11.199995 z"
     inkscape:connector-curvature="0"
     sodipodi:nodetypes="ccscccccccsccscccsccccsacsccscccccccccccccccssscccccssccccccccccccccccscsscccccccccccccccccccccccsscscccccccccccccccc" />
</svg>
